# xmcd
#
# Track frame offsets:
#	150
#	15642
#	29926
#	43048
#	59166
#	73453
#	87593
#	103329
#	118479
#	129807
#	145478
#	162793
#	177793
#	194285
#	209836
#	223298
#	238898
#	254087
#	268953
#	284714
#
# Disc length: 4006 seconds
#
# Revision: 0
# Processed by: cddbd v1.5.2PL0 Copyright (c) Steve Scherf et al.
# Submitted via: EasyCDDAExtractor 12.0.1.1
#
DISCID=660fa414
DTITLE=Sergio Pavat - Šiškaj Roža
DYEAR=1900
DGENRE=
TTITLE0=ŠIŠKAJ ROŽA FEAT COCKTAILS BAND
TTITLE1=ISTRIJANI PAEŽANI
TTITLE2=DIGNIMO ČAŠU ISTARSKOGA VINA
TTITLE3=REKLA MI JE DA ME NE VOLI
TTITLE4=ŠINJORINE
TTITLE5=ROĐENDANSKI VALCER
TTITLE6=JA SAN ISTRIJAN
TTITLE7=REĐIPET KOLOR DE ROSA
TTITLE8=TAKVA JE SUDBINA
TTITLE9=FEŠTA ISTRIANA
TTITLE10=VINO BIANCO, VINO NERO
TTITLE11=NOĆI ISTARSKE
TTITLE12=ADIO AUSTRALIA
TTITLE13=U RITMU POLKE
TTITLE14=MOJA MARJUĆI
TTITLE15=DAJ MI ISTRO KAPLIU MORA
TTITLE16=JA ČU DOĆI
TTITLE17=KAD NA VRATA POZVONIM
TTITLE18=JENNY
TTITLE19=NOĆI ISTARSKE REMIX
EXTD=
EXTT0=
EXTT1=
EXTT2=
EXTT3=
EXTT4=
EXTT5=
EXTT6=
EXTT7=
EXTT8=
EXTT9=
EXTT10=
EXTT11=
EXTT12=
EXTT13=
EXTT14=
EXTT15=
EXTT16=
EXTT17=
EXTT18=
EXTT19=
PLAYORDER=
